<svg width="20" height="21" viewBox="0 0 20 21" fill="none" xmlns="http://www.w3.org/2000/svg">
<path d="M10 0.0136719C15.5228 0.0136719 19.9999 4.50304 20 10.041C20 15.5791 15.5229 20.0684 10 20.0684C4.47726 20.0682 0 15.579 0 10.041C8.94163e-05 4.50312 4.47732 0.0138149 10 0.0136719ZM14.7168 6.77832C14.8837 6.09893 14.4611 5.79063 14.0234 5.99219L4.43945 9.74121C3.78554 10.0074 3.78931 10.378 4.32031 10.543L6.78027 11.3213L12.4736 7.67773C12.7424 7.5124 12.9895 7.60094 12.7871 7.7832L8.17285 12.0068L8.00391 14.5791C8.25265 14.5791 8.36311 14.4641 8.50195 14.3271L9.69629 13.1484L12.1826 15.0117C12.6401 15.2678 12.971 15.1353 13.085 14.5811L14.7168 6.77832Z" fill="white"/>
</svg>
