<svg width="20" height="21" viewBox="0 0 20 21" fill="none" xmlns="http://www.w3.org/2000/svg">
<path d="M10 0.0137939C15.5228 0.0137939 19.9999 4.50317 20 10.0411C20 15.5792 15.5229 20.0685 10 20.0685C4.47715 20.0685 0 15.5792 0 10.0411C0.000102668 4.50318 4.47721 0.0138047 10 0.0137939ZM10.1885 3.63C6.9494 3.63016 4.31303 6.33411 4.31152 9.65735C4.31108 10.7197 4.58238 11.7569 5.09668 12.671L4.2627 15.795L7.37793 14.9562C8.23632 15.4364 9.20293 15.6902 10.1865 15.6906H10.1885C13.4288 15.6892 16.0641 12.985 16.0654 9.66223C16.066 8.05175 15.4552 6.53782 14.3457 5.39856C13.2361 4.25917 11.7606 3.6307 10.1885 3.63Z" fill="white"/>
<path d="M10.166 4.61661C11.4796 4.61706 12.715 5.13009 13.6436 6.06192C14.5721 6.99375 15.0825 8.23296 15.082 9.5502C15.0808 12.2684 12.8746 14.4799 10.1641 14.4799H10.1621C9.27965 14.4795 8.41423 14.2415 7.65918 13.7924L7.47949 13.6859L5.61816 14.1752L6.11523 12.3559L5.99805 12.1693C5.50585 11.3846 5.24577 10.4776 5.24609 9.5463C5.24717 6.82829 7.45333 4.61669 10.166 4.61661ZM8.1084 6.91837C8.01164 6.91846 7.85454 6.95508 7.72168 7.10294C7.58859 7.25123 7.21387 7.61022 7.21387 8.33926C7.21396 9.0683 7.73404 9.77265 7.80664 9.87149C7.88064 9.97264 8.83171 11.4667 10.2871 12.1078C10.6333 12.2603 10.9034 12.3521 11.1143 12.4203C11.4621 12.5331 11.7791 12.5171 12.0293 12.4789C12.3082 12.4363 12.8874 12.1205 13.0088 11.7748C13.1297 11.4288 13.13 11.1315 13.0938 11.0697C13.0573 11.0081 12.9604 10.9709 12.8154 10.8969C12.6698 10.8225 11.9563 10.4649 11.8232 10.4154C11.6902 10.366 11.5938 10.3414 11.4971 10.4897C11.4003 10.6379 11.122 10.9706 11.0371 11.0697C10.9524 11.1685 10.8677 11.1809 10.7227 11.1068C10.5775 11.0327 10.1093 10.8762 9.55469 10.3715C9.12344 9.97902 8.83199 9.49474 8.74707 9.3461C8.66237 9.1978 8.73786 9.11723 8.81055 9.04337C8.87587 8.97697 8.95574 8.87005 9.02832 8.7836C9.10079 8.69723 9.12546 8.63525 9.17383 8.53653C9.22194 8.43786 9.19735 8.35175 9.16113 8.27774C9.12484 8.20359 8.83487 7.47375 8.71387 7.17715C8.59603 6.88864 8.47581 6.92781 8.38672 6.92325C8.3022 6.91893 8.20505 6.91837 8.1084 6.91837Z" fill="white"/>
</svg>
