<svg width="0" height="0" class="hidden">
  <symbol fill="none" xmlns="http://www.w3.org/2000/svg" viewBox="0 0 24 24" id="location">
    <path d="M12.0009 13.43C13.724 13.43 15.1209 12.0331 15.1209 10.31C15.1209 8.58687 13.724 7.19 12.0009 7.19C10.2777 7.19 8.88086 8.58687 8.88086 10.31C8.88086 12.0331 10.2777 13.43 12.0009 13.43Z" stroke="#E2007B" stroke-width="1.5"></path>
    <path d="M3.61971 8.49C5.58971 -0.169998 18.4197 -0.159997 20.3797 8.5C21.5297 13.58 18.3697 17.88 15.5997 20.54C13.5897 22.48 10.4097 22.48 8.38971 20.54C5.62971 17.88 2.46971 13.57 3.61971 8.49Z" stroke="#E2007B" stroke-width="1.5"></path>
  </symbol>
  <symbol fill="none" xmlns="http://www.w3.org/2000/svg" viewBox="0 0 24 24" id="mobile">
    <path d="M20 7V17C20 21 19 22 15 22H9C5 22 4 21 4 17V7C4 3 5 2 9 2H15C19 2 20 3 20 7Z" stroke="#E2007B" stroke-width="1.5" stroke-linecap="round" stroke-linejoin="round"></path>
    <path d="M14 5.5H10" stroke="#E2007B" stroke-width="1.5" stroke-linecap="round" stroke-linejoin="round"></path>
    <path d="M11.9992 19.1C12.8553 19.1 13.5492 18.406 13.5492 17.55C13.5492 16.694 12.8553 16 11.9992 16C11.1432 16 10.4492 16.694 10.4492 17.55C10.4492 18.406 11.1432 19.1 11.9992 19.1Z" stroke="#E2007B" stroke-width="1.5" stroke-linecap="round" stroke-linejoin="round"></path>
  </symbol>
  <symbol fill="none" xmlns="http://www.w3.org/2000/svg" viewBox="0 0 24 24" id="mobile-2">
    <path d="M7 12C3 12 3 13.79 3 16V17C3 19.76 3 22 8 22H16C20 22 21 19.76 21 17V16C21 13.79 21 12 17 12C16 12 15.72 12.21 15.2 12.6L14.18 13.68C13 14.94 11 14.94 9.81 13.68L8.8 12.6C8.28 12.21 8 12 7 12Z" stroke="#E2007B" stroke-width="1.5" stroke-miterlimit="10" stroke-linecap="round" stroke-linejoin="round"></path>
    <path d="M19 12V6C19 3.79 19 2 15 2H9C5 2 5 3.79 5 6V12" stroke="#E2007B" stroke-width="1.5" stroke-miterlimit="10" stroke-linecap="round" stroke-linejoin="round"></path>
    <path d="M10.5508 9.22998H13.8808" stroke="#E2007B" stroke-width="1.5" stroke-linecap="round" stroke-linejoin="round"></path>
    <path d="M9.7207 6.22998H14.7207" stroke="#E2007B" stroke-width="1.5" stroke-linecap="round" stroke-linejoin="round"></path>
  </symbol>
  <symbol fill="none" xmlns="http://www.w3.org/2000/svg" viewBox="0 0 24 24" id="search">
    <path d="M11 20C15.9706 20 20 15.9706 20 11C20 6.02944 15.9706 2 11 2C6.02944 2 2 6.02944 2 11C2 15.9706 6.02944 20 11 20Z" stroke="currentColor" stroke-width="1.5" stroke-linecap="round" stroke-linejoin="round"></path>
    <path d="M18.9304 20.6898C19.4604 22.2898 20.6704 22.4498 21.6004 21.0498C22.4504 19.7698 21.8904 18.7198 20.3504 18.7198C19.2104 18.7098 18.5704 19.5998 18.9304 20.6898Z" stroke="currentColor" stroke-width="1.5" stroke-linecap="round" stroke-linejoin="round"></path>
  </symbol>
  <symbol fill="none" xmlns="http://www.w3.org/2000/svg" viewBox="0 0 20 21" id="tg">
    <path d="M10 0.0136719C15.5228 0.0136719 19.9999 4.50304 20 10.041C20 15.5791 15.5229 20.0684 10 20.0684C4.47726 20.0682 0 15.579 0 10.041C8.94163e-05 4.50312 4.47732 0.0138149 10 0.0136719ZM14.7168 6.77832C14.8837 6.09893 14.4611 5.79063 14.0234 5.99219L4.43945 9.74121C3.78554 10.0074 3.78931 10.378 4.32031 10.543L6.78027 11.3213L12.4736 7.67773C12.7424 7.5124 12.9895 7.60094 12.7871 7.7832L8.17285 12.0068L8.00391 14.5791C8.25265 14.5791 8.36311 14.4641 8.50195 14.3271L9.69629 13.1484L12.1826 15.0117C12.6401 15.2678 12.971 15.1353 13.085 14.5811L14.7168 6.77832Z" fill="currentColor"></path>
  </symbol>
  <symbol fill="none" xmlns="http://www.w3.org/2000/svg" viewBox="0 0 20 21" id="vk">
    <path d="M9.01793 0.0372849C7.12168 0.2293 5.31536 0.954252 3.81791 2.1181C3.36046 2.4747 2.58242 3.24275 2.20317 3.71299C1.08888 5.09628 0.377295 6.71077 0.0762409 8.53295C-0.0254136 9.1521 -0.0254136 10.9312 0.0762409 11.5503C0.447671 13.7957 1.42121 15.6923 3.00076 17.2324C4.60769 18.7998 6.51175 19.7168 8.78334 20.0186C9.46364 20.1048 10.9455 20.0773 11.6218 19.9598C12.6462 19.7834 13.5181 19.5013 14.433 19.0506C15.4026 18.5726 16.1846 18.02 16.99 17.2324C18.55 15.708 19.5196 13.8545 19.8911 11.6718C20.0083 10.99 20.0357 9.5518 19.9497 8.82685C19.59 5.88393 17.9674 3.26626 15.4886 1.63218C14.2023 0.785749 12.7713 0.260649 11.2465 0.068634C10.8047 0.013773 9.42455 -0.00581932 9.01793 0.0372849ZM10.6405 6.86752C10.8203 6.92238 10.9181 6.99683 11.008 7.16142C11.0627 7.2633 11.0706 7.44748 11.0706 8.61132C11.0706 9.88489 11.0745 9.95151 11.1488 10.0808C11.2074 10.1788 11.2621 10.2219 11.3443 10.2297C11.6414 10.265 12.5993 8.92873 13.0489 7.84718C13.2718 7.31816 13.3265 7.21628 13.4399 7.16142C13.6002 7.07521 15.8366 7.07521 16.036 7.1575C16.2745 7.25938 16.2628 7.52585 15.993 8.06271C15.8405 8.36445 15.7349 8.51727 14.9569 9.57531C14.6637 9.97502 14.3861 10.363 14.3392 10.4374C14.214 10.6373 14.171 10.8371 14.2179 10.9664C14.2414 11.0252 14.5659 11.3857 14.9373 11.7619C15.5551 12.3928 16.0086 12.9375 16.1572 13.2236C16.1924 13.2863 16.2198 13.4078 16.2198 13.494C16.2198 13.686 16.0751 13.8623 15.864 13.9211C15.6685 13.976 13.9599 13.9721 13.7019 13.9172C13.3343 13.8388 13.2053 13.7409 12.4976 13.0198C11.9112 12.4242 11.79 12.3184 11.6609 12.2949C11.3638 12.2361 11.227 12.4516 11.1097 13.1766C11.0706 13.4038 11.0119 13.635 10.9806 13.6938C10.879 13.8663 10.6835 13.9211 10.1361 13.9211C8.79898 13.9211 7.75116 13.4705 6.78153 12.483C6.06995 11.7619 5.24107 10.5001 4.50212 9.0267C3.77881 7.56896 3.68889 7.31424 3.86092 7.16142C3.9352 7.09088 4.0134 7.08696 4.95957 7.0948C6.05431 7.10655 6.15987 7.12223 6.32017 7.31033C6.36709 7.36519 6.48048 7.58463 6.57431 7.79624C6.87927 8.5016 7.23506 9.12859 7.67296 9.73206C8.17732 10.4178 8.43928 10.4492 8.5683 9.83786C8.66214 9.38722 8.64259 7.89421 8.54093 7.70611C8.4471 7.53369 8.25943 7.38478 8.09913 7.35343C7.89973 7.31816 7.85281 7.23979 7.95056 7.11047C8.06003 6.96157 8.24379 6.8636 8.48229 6.82441C8.77161 6.78131 10.4489 6.81266 10.6405 6.86752Z" fill="currentColor"></path>
  </symbol>
  <symbol fill="none" xmlns="http://www.w3.org/2000/svg" viewBox="0 0 20 21" id="wa">
    <path d="M10 0.0137939C15.5228 0.0137939 19.9999 4.50317 20 10.0411C20 15.5792 15.5229 20.0685 10 20.0685C4.47715 20.0685 0 15.5792 0 10.0411C0.000102668 4.50318 4.47721 0.0138047 10 0.0137939ZM10.1885 3.63C6.9494 3.63016 4.31303 6.33411 4.31152 9.65735C4.31108 10.7197 4.58238 11.7569 5.09668 12.671L4.2627 15.795L7.37793 14.9562C8.23632 15.4364 9.20293 15.6902 10.1865 15.6906H10.1885C13.4288 15.6892 16.0641 12.985 16.0654 9.66223C16.066 8.05175 15.4552 6.53782 14.3457 5.39856C13.2361 4.25917 11.7606 3.6307 10.1885 3.63Z" fill="currentColor"></path>
    <path d="M10.166 4.61661C11.4796 4.61706 12.715 5.13009 13.6436 6.06192C14.5721 6.99375 15.0825 8.23296 15.082 9.5502C15.0808 12.2684 12.8746 14.4799 10.1641 14.4799H10.1621C9.27965 14.4795 8.41423 14.2415 7.65918 13.7924L7.47949 13.6859L5.61816 14.1752L6.11523 12.3559L5.99805 12.1693C5.50585 11.3846 5.24577 10.4776 5.24609 9.5463C5.24717 6.82829 7.45333 4.61669 10.166 4.61661ZM8.1084 6.91837C8.01164 6.91846 7.85454 6.95508 7.72168 7.10294C7.58859 7.25123 7.21387 7.61022 7.21387 8.33926C7.21396 9.0683 7.73404 9.77265 7.80664 9.87149C7.88064 9.97264 8.83171 11.4667 10.2871 12.1078C10.6333 12.2603 10.9034 12.3521 11.1143 12.4203C11.4621 12.5331 11.7791 12.5171 12.0293 12.4789C12.3082 12.4363 12.8874 12.1205 13.0088 11.7748C13.1297 11.4288 13.13 11.1315 13.0938 11.0697C13.0573 11.0081 12.9604 10.9709 12.8154 10.8969C12.6698 10.8225 11.9563 10.4649 11.8232 10.4154C11.6902 10.366 11.5938 10.3414 11.4971 10.4897C11.4003 10.6379 11.122 10.9706 11.0371 11.0697C10.9524 11.1685 10.8677 11.1809 10.7227 11.1068C10.5775 11.0327 10.1093 10.8762 9.55469 10.3715C9.12344 9.97902 8.83199 9.49474 8.74707 9.3461C8.66237 9.1978 8.73786 9.11723 8.81055 9.04337C8.87587 8.97697 8.95574 8.87005 9.02832 8.7836C9.10079 8.69723 9.12546 8.63525 9.17383 8.53653C9.22194 8.43786 9.19735 8.35175 9.16113 8.27774C9.12484 8.20359 8.83487 7.47375 8.71387 7.17715C8.59603 6.88864 8.47581 6.92781 8.38672 6.92325C8.3022 6.91893 8.20505 6.91837 8.1084 6.91837Z" fill="currentColor"></path>
  </symbol>
  <symbol fill="none" xmlns="http://www.w3.org/2000/svg" viewBox="0 0 10 16" id="arrow-left">
    <path d="M9 1L2 8L9 15" stroke="currentColor" stroke-width="2" stroke-linecap="round"></path>
  </symbol>
  <symbol fill="none" xmlns="http://www.w3.org/2000/svg" viewBox="0 0 10 16" id="arrow-right">
    <path d="M1 1L8 8L1 15" stroke="currentColor" stroke-width="2" stroke-linecap="round"></path>
  </symbol>
  <symbol fill="none" xmlns="http://www.w3.org/2000/svg" viewBox="0 0 24 24" id="download">
    <path d="M16.4405 8.90002C20.0405 9.21002 21.5105 11.06 21.5105 15.11V15.24C21.5105 19.71 19.7205 21.5 15.2505 21.5H8.74047C4.27047 21.5 2.48047 19.71 2.48047 15.24V15.11C2.48047 11.09 3.93047 9.24002 7.47047 8.91002" stroke="#E2007B" stroke-width="1.5" stroke-linecap="round" stroke-linejoin="round"></path>
    <path d="M12 2V14.88" stroke="#E2007B" stroke-width="1.5" stroke-linecap="round" stroke-linejoin="round"></path>
    <path d="M15.3504 12.65L12.0004 16L8.65039 12.65" stroke="#E2007B" stroke-width="1.5" stroke-linecap="round" stroke-linejoin="round"></path>
  </symbol>
  <symbol fill="none" xmlns="http://www.w3.org/2000/svg" viewBox="0 0 24 24" id="email">
    <path d="M17 20.5H7C4 20.5 2 19 2 15.5V8.5C2 5 4 3.5 7 3.5H17C20 3.5 22 5 22 8.5V15.5C22 19 20 20.5 17 20.5Z" stroke="#E2007B" stroke-width="1.5" stroke-miterlimit="10" stroke-linecap="round" stroke-linejoin="round"></path>
    <path d="M17 9L13.87 11.5C12.84 12.32 11.15 12.32 10.12 11.5L7 9" stroke="#E2007B" stroke-width="1.5" stroke-miterlimit="10" stroke-linecap="round" stroke-linejoin="round"></path>
  </symbol>
  <symbol fill="none" xmlns="http://www.w3.org/2000/svg" viewBox="0 0 24 24" id="global">
    <path d="M12 22C17.5228 22 22 17.5228 22 12C22 6.47715 17.5228 2 12 2C6.47715 2 2 6.47715 2 12C2 17.5228 6.47715 22 12 22Z" stroke="#E2007B" stroke-width="1.5" stroke-linecap="round" stroke-linejoin="round"></path>
    <path d="M7.99961 3H8.99961C7.04961 8.84 7.04961 15.16 8.99961 21H7.99961" stroke="#E2007B" stroke-width="1.5" stroke-linecap="round" stroke-linejoin="round"></path>
    <path d="M15 3C16.95 8.84 16.95 15.16 15 21" stroke="#E2007B" stroke-width="1.5" stroke-linecap="round" stroke-linejoin="round"></path>
    <path d="M3 16V15C8.84 16.95 15.16 16.95 21 15V16" stroke="#E2007B" stroke-width="1.5" stroke-linecap="round" stroke-linejoin="round"></path>
    <path d="M3 8.99998C8.84 7.04998 15.16 7.04998 21 8.99998" stroke="#E2007B" stroke-width="1.5" stroke-linecap="round" stroke-linejoin="round"></path>
  </symbol>
</svg>