<svg width="20" height="21" viewBox="0 0 20 21" fill="none" xmlns="http://www.w3.org/2000/svg">
<path d="M9.01793 0.0372849C7.12168 0.2293 5.31536 0.954252 3.81791 2.1181C3.36046 2.4747 2.58242 3.24275 2.20317 3.71299C1.08888 5.09628 0.377295 6.71077 0.0762409 8.53295C-0.0254136 9.1521 -0.0254136 10.9312 0.0762409 11.5503C0.447671 13.7957 1.42121 15.6923 3.00076 17.2324C4.60769 18.7998 6.51175 19.7168 8.78334 20.0186C9.46364 20.1048 10.9455 20.0773 11.6218 19.9598C12.6462 19.7834 13.5181 19.5013 14.433 19.0506C15.4026 18.5726 16.1846 18.02 16.99 17.2324C18.55 15.708 19.5196 13.8545 19.8911 11.6718C20.0083 10.99 20.0357 9.5518 19.9497 8.82685C19.59 5.88393 17.9674 3.26626 15.4886 1.63218C14.2023 0.785749 12.7713 0.260649 11.2465 0.068634C10.8047 0.013773 9.42455 -0.00581932 9.01793 0.0372849ZM10.6405 6.86752C10.8203 6.92238 10.9181 6.99683 11.008 7.16142C11.0627 7.2633 11.0706 7.44748 11.0706 8.61132C11.0706 9.88489 11.0745 9.95151 11.1488 10.0808C11.2074 10.1788 11.2621 10.2219 11.3443 10.2297C11.6414 10.265 12.5993 8.92873 13.0489 7.84718C13.2718 7.31816 13.3265 7.21628 13.4399 7.16142C13.6002 7.07521 15.8366 7.07521 16.036 7.1575C16.2745 7.25938 16.2628 7.52585 15.993 8.06271C15.8405 8.36445 15.7349 8.51727 14.9569 9.57531C14.6637 9.97502 14.3861 10.363 14.3392 10.4374C14.214 10.6373 14.171 10.8371 14.2179 10.9664C14.2414 11.0252 14.5659 11.3857 14.9373 11.7619C15.5551 12.3928 16.0086 12.9375 16.1572 13.2236C16.1924 13.2863 16.2198 13.4078 16.2198 13.494C16.2198 13.686 16.0751 13.8623 15.864 13.9211C15.6685 13.976 13.9599 13.9721 13.7019 13.9172C13.3343 13.8388 13.2053 13.7409 12.4976 13.0198C11.9112 12.4242 11.79 12.3184 11.6609 12.2949C11.3638 12.2361 11.227 12.4516 11.1097 13.1766C11.0706 13.4038 11.0119 13.635 10.9806 13.6938C10.879 13.8663 10.6835 13.9211 10.1361 13.9211C8.79898 13.9211 7.75116 13.4705 6.78153 12.483C6.06995 11.7619 5.24107 10.5001 4.50212 9.0267C3.77881 7.56896 3.68889 7.31424 3.86092 7.16142C3.9352 7.09088 4.0134 7.08696 4.95957 7.0948C6.05431 7.10655 6.15987 7.12223 6.32017 7.31033C6.36709 7.36519 6.48048 7.58463 6.57431 7.79624C6.87927 8.5016 7.23506 9.12859 7.67296 9.73206C8.17732 10.4178 8.43928 10.4492 8.5683 9.83786C8.66214 9.38722 8.64259 7.89421 8.54093 7.70611C8.4471 7.53369 8.25943 7.38478 8.09913 7.35343C7.89973 7.31816 7.85281 7.23979 7.95056 7.11047C8.06003 6.96157 8.24379 6.8636 8.48229 6.82441C8.77161 6.78131 10.4489 6.81266 10.6405 6.86752Z" fill="white"/>
</svg>
